PathFileType	4	(X/Y/Z)	G:/Ayumi_testdata/vicon/updated_static_jc/static_00.trc	
DataRate	CameraRate	NumFrames	NumMarkers	Units	OrigDataRate	OrigDataStartFrame	OrigNumFrames	
200.00	200.00	4	66	mm	200.00	185	295	
Frame#	Time	LASI			RASI			RSACR			LSACR			USACR			LBAR			RBAR			RHEE			RMT1			RMT5			RMT2			LHEE			LMT1			LMT5			LMT2			LMMAL			LMFC			LLFC			LLMAL			LTIB4			LTIB2			LTIB3			LTIB1			RMMAL			RMFC			RLFC			RLMAL			RTIB1			RTIB2			RTIB3			RTHI1			RTHI4			RTHI3			RTHI2			LTHI1			LTHI4			LTHI3			LTHI2			FHD			LBHD			RBHD			C7			T10			CLAV			LSHO			RSHO			LRAD			LUL			LRFIN			RRAD			RUL			RUFIN			RLEP			RMEP			LLEP			LMEP			LDUPA			LMUPA			LUUPA			RDUPA			RUUPA			RMUPA			RKJC			LKJC			LAKJC			RAKJC			
		X1	Y1	Z1	X2	Y2	Z2	X3	Y3	Z3	X4	Y4	Z4	X5	Y5	Z5	X6	Y6	Z6	X7	Y7	Z7	X8	Y8	Z8	X9	Y9	Z9	X10	Y10	Z10	X11	Y11	Z11	X12	Y12	Z12	X13	Y13	Z13	X14	Y14	Z14	X15	Y15	Z15	X16	Y16	Z16	X17	Y17	Z17	X18	Y18	Z18	X19	Y19	Z19	X20	Y20	Z20	X21	Y21	Z21	X22	Y22	Z22	X23	Y23	Z23	X24	Y24	Z24	X25	Y25	Z25	X26	Y26	Z26	X27	Y27	Z27	X28	Y28	Z28	X29	Y29	Z29	X30	Y30	Z30	X31	Y31	Z31	X32	Y32	Z32	X33	Y33	Z33	X34	Y34	Z34	X35	Y35	Z35	X36	Y36	Z36	X37	Y37	Z37	X38	Y38	Z38	X39	Y39	Z39	X40	Y40	Z40	X41	Y41	Z41	X42	Y42	Z42	X43	Y43	Z43	X44	Y44	Z44	X45	Y45	Z45	X46	Y46	Z46	X47	Y47	Z47	X48	Y48	Z48	X49	Y49	Z49	X50	Y50	Z50	X51	Y51	Z51	X52	Y52	Z52	X53	Y53	Z53	X54	Y54	Z54	X55	Y55	Z55	X56	Y56	Z56	X57	Y57	Z57	X58	Y58	Z58	X59	Y59	Z59	X60	Y60	Z60	X61	Y61	Z61	X62	Y62	Z62	X63	Y63	Z63	X64	Y64	Z64	X65	Y65	Z65	X66	Y66	Z66	

185	0.920	133.76590	761.88330	918.20496	129.46634	984.40094	918.82697	309.19968	912.27032	950.08936	308.17642	852.46490	953.33978	297.53085	882.22839	966.48804	1270.83826	-346.48975	26.29943	1226.43030	1876.95667	26.26515	323.05423	1019.66315	39.83197	128.16975	1043.31641	43.45220	164.99635	1113.78577	34.99565	140.17770	1079.96289	42.70276	326.24164	745.16486	45.82682	134.38428	736.44287	46.33873	169.96434	662.78339	33.41602	143.15985	698.03180	45.92531	276.67657	778.67432	72.96265	232.76546	828.96613	456.95197	219.18904	721.32886	453.98859	278.78860	700.97113	69.12701	290.25946	691.42285	209.60869	313.90872	691.38916	270.90683	263.42517	684.46948	268.15408	301.59927	687.01117	314.32184	275.16638	994.07373	68.34385	235.19518	935.27570	446.54108	220.44908	1041.15710	461.31061	284.66330	1068.58813	72.25529	257.01553	1082.65027	319.28690	307.44388	1077.11768	314.02914	276.50443	1081.27795	256.16672	241.56381	1059.93250	783.82251	242.66086	1064.46008	635.12036	191.26390	1066.43811	636.99677	218.97124	1070.01343	696.98309	238.46275	698.56787	778.89215	236.39966	694.93292	646.56836	185.67609	693.02966	637.49426	200.10236	689.13800	701.22095	130.77956	775.85022	1593.14478	241.54472	786.85834	1576.05042	253.03250	910.32336	1571.21069	263.16769	858.13135	1391.32910	285.55130	877.32635	1007.46399	140.83813	872.92517	1328.15613	244.82660	725.42078	1380.86670	236.77870	986.99280	1396.74561	166.66605	222.77208	1359.67261	207.29285	222.49638	1355.12610	153.47778	130.76068	1339.15125	241.00024	1500.80164	1389.34839	287.90027	1499.94189	1383.13098	235.24550	1590.97729	1391.60059	293.21582	1271.52063	1329.77039	254.88084	1272.04443	1296.29639	222.00084	454.18643	1300.95728	181.04034	466.79071	1278.59229	238.09993	506.31744	1354.45093	202.18150	536.84235	1372.05200	239.11459	585.51337	1362.87915	266.31961	1205.91077	1382.22852	257.08932	1144.20288	1383.89966	216.05589	1212.42651	1385.41870	227.82213	988.21640	453.92584	225.97725	775.14749	455.47028	277.73259	739.82272	71.04483	279.91484	1031.33093	70.29957 
186	0.925	133.77396	761.89691	918.19879	129.48405	984.40460	918.82458	309.22046	912.26154	950.08905	308.20560	852.46497	953.34937	297.54803	882.22540	966.47894	1270.83740	-346.48746	26.29958	1226.41589	1876.96399	26.29189	323.05643	1019.64044	39.83300	128.16608	1043.32642	43.45261	165.00317	1113.78503	34.99808	140.17659	1079.96411	42.70561	326.24600	745.16077	45.82100	134.38341	736.44702	46.33938	169.97179	662.78510	33.41945	143.15958	698.03149	45.92191	276.68188	778.67981	72.95927	232.76978	828.96826	456.94479	219.19174	721.33496	453.98923	278.79196	700.97467	69.13452	290.25461	691.43079	209.60687	313.86017	691.37988	270.95831	263.36908	684.39435	268.13062	301.60590	687.02026	314.29324	275.17172	994.07587	68.34396	235.19156	935.27875	446.54385	220.46916	1041.15894	461.30835	284.65833	1068.59338	72.25067	257.01984	1082.66431	319.27933	307.46631	1077.12146	314.02216	276.51434	1081.27844	256.15323	241.57329	1059.93604	783.82178	242.68784	1064.47717	635.10962	191.27608	1066.47144	636.99023	218.98735	1070.01990	696.97229	238.45963	698.57434	778.89569	236.38812	694.95026	646.55505	185.69591	693.02393	637.49200	200.12675	689.14203	701.21838	130.82043	775.85205	1593.13916	241.54329	786.85522	1576.06470	253.04323	910.32275	1571.20374	263.16940	858.12030	1391.32642	285.57071	877.32739	1007.47235	140.83766	872.91711	1328.14685	244.84782	725.40912	1380.87036	236.78197	986.98853	1396.75208	166.66815	222.77174	1359.65979	207.30034	222.49199	1355.11157	153.46738	130.76804	1339.16064	241.01080	1500.79846	1389.36816	287.90967	1499.93713	1383.13416	235.25510	1590.96191	1391.61572	293.21039	1271.51892	1329.77405	254.88286	1272.03918	1296.30627	221.99873	454.18527	1300.95715	181.05763	466.78503	1278.58386	238.11172	506.30396	1354.46008	202.18451	536.83173	1372.04578	239.11183	585.50067	1362.89600	266.32486	1205.90552	1382.23950	257.09885	1144.19141	1383.89880	216.06190	1212.42017	1385.42505	227.83036	988.21884	453.92610	225.98076	775.15161	455.46701	277.73692	739.82724	71.04690	279.91502	1031.33463	70.29731 
187	0.930	133.78235	761.90137	918.19879	129.50983	984.40881	918.82098	309.23056	912.26038	950.09473	308.21335	852.45032	953.35803	297.56839	882.21417	966.48621	1270.82312	-346.53973	26.29331	1226.43213	1876.97095	26.27784	323.04779	1019.64978	39.83850	128.17651	1043.32397	43.44499	165.07246	1113.67261	34.82706	140.17982	1079.96326	42.70564	326.23819	745.15784	45.82602	134.38567	736.44495	46.33902	169.96393	662.78931	33.42081	143.16779	698.03162	45.92018	276.68805	778.67706	72.96080	232.78004	828.97852	456.94849	219.19577	721.33691	453.99216	278.78510	700.96509	69.11835	290.25723	691.43097	209.60522	313.90823	691.40161	270.90640	263.35571	684.40295	268.12952	301.60355	687.02484	314.28665	275.17813	994.06885	68.34447	235.20847	935.27814	446.53955	220.48230	1041.15552	461.30667	284.65076	1068.58508	72.24996	257.03345	1082.64856	319.28052	307.47330	1077.11450	314.02167	276.51297	1081.28284	256.15201	241.59485	1059.93738	783.82324	242.70914	1064.46887	635.12183	191.30219	1066.45117	637.00201	219.04869	1070.01563	696.97668	238.46198	698.57178	778.89581	236.38466	694.94751	646.56201	185.69855	693.00854	637.50281	200.13780	689.13507	701.21924	130.81551	775.84924	1593.14514	241.53242	786.85535	1576.05420	253.03912	910.32104	1571.19519	263.17181	858.11829	1391.33765	285.58606	877.32275	1007.46490	140.83980	872.91418	1328.13892	244.84444	725.40228	1380.87720	236.78680	986.98065	1396.75208	166.66875	222.76646	1359.64832	207.29816	222.48274	1355.11365	153.43637	130.67999	1339.26270	241.02168	1500.78821	1389.38171	287.90945	1499.93530	1383.15112	235.25964	1590.95496	1391.62354	293.20755	1271.51135	1329.77551	254.89235	1272.03235	1296.31091	222.00537	454.17978	1300.95520	181.06299	466.77530	1278.57983	238.10023	506.30881	1354.44861	202.19360	536.83960	1372.04492	239.12207	585.50977	1362.86536	266.33505	1205.89636	1382.23743	257.11197	1144.18127	1383.90991	216.12476	1212.36487	1385.35242	227.84538	988.21683	453.92311	225.98791	775.15771	455.47032	277.73657	739.82108	71.03957	279.91444	1031.32697	70.29722 
188	0.935	133.79559	761.90247	918.19922	129.52150	984.41229	918.82312	309.24921	912.25867	950.09369	308.23816	852.45172	953.36029	297.58023	882.21533	966.48438	1270.82996	-346.47058	26.29313	1226.42041	1876.97400	26.27877	323.05252	1019.64233	39.83710	128.16824	1043.32471	43.44688	165.00319	1113.79419	34.99561	140.17227	1079.96118	42.70799	326.24146	745.15497	45.82201	134.39084	736.44543	46.33404	169.95560	662.78845	33.42948	143.16730	698.03815	45.92150	276.67465	778.68463	72.96393	232.80750	828.96906	456.94040	219.21101	721.34363	453.99689	278.79401	700.96790	69.12683	290.25674	691.42645	209.60057	313.90662	691.38251	270.89398	263.43015	684.47479	268.14792	301.59399	687.00690	314.31750	275.18494	994.07867	68.34409	235.22353	935.28656	446.53772	220.48909	1041.17102	461.31396	284.66196	1068.58765	72.24894	257.04810	1082.65356	319.27643	307.50085	1077.10559	314.02344	276.53818	1081.28406	256.16187	241.62624	1059.93689	783.82678	242.72542	1064.44763	635.11597	191.32684	1066.49463	637.00348	219.03619	1070.03271	696.99133	238.46031	698.56274	778.89465	236.39714	694.92883	646.57294	185.70782	693.01349	637.50354	200.13901	689.13861	701.22009	130.81677	775.84833	1593.16418	241.55127	786.85846	1576.05127	253.04007	910.32367	1571.18494	263.16992	858.11951	1391.35132	285.59933	877.32117	1007.47687	140.83524	872.91028	1328.13940	244.84711	725.39874	1380.87634	236.78828	986.97650	1396.75781	166.66338	222.75893	1359.63342	207.29396	222.47516	1355.09778	153.43883	130.76103	1339.15918	241.01967	1500.78040	1389.38220	287.92346	1499.93018	1383.16125	235.27176	1590.94775	1391.62891	293.21692	1271.50269	1329.78467	254.87488	1272.03064	1296.32861	222.01538	454.16580	1300.94885	181.07269	466.77417	1278.57434	238.10405	506.29517	1354.44214	202.18637	536.82336	1372.03711	239.14870	585.49170	1362.84534	266.32846	1205.89380	1382.25000	257.12454	1144.17114	1383.91150	216.13443	1212.35034	1385.36438	227.85631	988.22879	453.92584	226.00925	775.15634	455.46864	277.73433	739.82626	71.04538	279.92345	1031.33316	70.29651 
